<svg xmlns="http://www.w3.org/2000/svg" width="18.169" height="12.117" viewBox="0 0 18.169 12.117">
  <path id="Icon_ionic-ios-arrow-round-forward" data-name="Icon ionic-ios-arrow-round-forward" d="M19.461,11.484a.825.825,0,0,0-.006,1.161l3.837,3.843H8.689a.82.82,0,0,0,0,1.641h14.6l-3.837,3.843a.831.831,0,0,0,.006,1.161.817.817,0,0,0,1.155-.006l5.2-5.238h0a.921.921,0,0,0,.17-.259.783.783,0,0,0,.063-.316.823.823,0,0,0-.233-.574L20.61,11.5A.8.8,0,0,0,19.461,11.484Z" transform="translate(-7.875 -11.252)" fill="#fff"/>
</svg>
