<svg xmlns="http://www.w3.org/2000/svg" width="14.451" height="9.638" viewBox="0 0 14.451 9.638">
  <path id="Icon_ionic-ios-arrow-round-forward" data-name="Icon ionic-ios-arrow-round-forward" d="M17.091,11.436a.656.656,0,0,0-.005.924l3.052,3.057H8.523a.653.653,0,0,0,0,1.305H20.133l-3.052,3.057a.661.661,0,0,0,.005.924A.65.65,0,0,0,18,20.7l4.136-4.166h0a.733.733,0,0,0,.136-.206.623.623,0,0,0,.05-.251.654.654,0,0,0-.186-.457L18,11.451A.639.639,0,0,0,17.091,11.436Z" transform="translate(-7.875 -11.252)" fill="#fff"/>
</svg>
