<svg xmlns="http://www.w3.org/2000/svg" width="11.477" height="7.653" viewBox="0 0 11.477 7.653">
  <path id="Icon_ionic-ios-arrow-round-forward" data-name="Icon ionic-ios-arrow-round-forward" d="M15.194,11.4a.521.521,0,0,0,0,.733l2.424,2.428H8.389a.518.518,0,0,0,0,1.036h9.22l-2.424,2.428a.525.525,0,0,0,0,.733.516.516,0,0,0,.729,0L19.2,15.444h0a.582.582,0,0,0,.108-.163.5.5,0,0,0,.04-.2.52.52,0,0,0-.147-.363L15.919,11.41A.508.508,0,0,0,15.194,11.4Z" transform="translate(-7.875 -11.252)"/>
</svg>
