<svg id="Group_3093" data-name="Group 3093" xmlns="http://www.w3.org/2000/svg" width="25.441" height="26.734" viewBox="0 0 25.441 26.734">
  <path id="Path_31316" data-name="Path 31316" d="M470.372,362.867h-2.059l-.348,10.817h2.756Z" transform="translate(-454.054 -352.081)" fill="#4ca645"/>
  <path id="Path_31317" data-name="Path 31317" d="M646.746,362.867h-2.059l-.348,10.817h2.755Z" transform="translate(-625.184 -352.081)" fill="#4ca645"/>
  <path id="Path_31318" data-name="Path 31318" d="M294,362.867h-2.059l-.348,10.817h2.755Z" transform="translate(-282.923 -352.081)" fill="#4ca645"/>
  <path id="Path_31319" data-name="Path 31319" d="M117.625,362.867h-2.059l-.348,10.817h2.756Z" transform="translate(-111.793 -352.081)" fill="#4ca645"/>
  <rect id="Rectangle_1189" data-name="Rectangle 1189" width="19.791" height="1.496" transform="translate(2.825 8.694)" fill="#4ca645"/>
  <path id="Path_31320" data-name="Path 31320" d="M3.675,748.317v1.5h-1.4v1.5H.876v1.5h25.39v-1.5h-1.4v-1.5h-1.4v-1.5Z" transform="translate(-0.85 -726.072)" fill="#4ca645"/>
  <path id="Path_31321" data-name="Path 31321" d="M12.721,0,0,6.9V8.1H25.442V6.9Z" fill="#4ca645"/>
</svg>
