<svg xmlns="http://www.w3.org/2000/svg" width="12.467" height="12.467" viewBox="0 0 12.467 12.467">
  <path id="Icon_material-phone-forwarded" data-name="Icon material-phone-forwarded" d="M13.85,7.733l3.117-3.117L13.85,1.5V3.37H11.357V5.863H13.85ZM15.1,10.538a7.081,7.081,0,0,1-2.225-.355.636.636,0,0,0-.636.15L10.864,11.7A9.378,9.378,0,0,1,6.756,7.6L8.128,6.219A.6.6,0,0,0,8.284,5.6,7.081,7.081,0,0,1,7.928,3.37a.625.625,0,0,0-.623-.623H5.123A.625.625,0,0,0,4.5,3.37a10.6,10.6,0,0,0,10.6,10.6.625.625,0,0,0,.623-.623V11.162A.625.625,0,0,0,15.1,10.538Z" transform="translate(-4.5 -1.5)" fill="#4ca645"/>
</svg>
