<svg xmlns="http://www.w3.org/2000/svg" width="26.757" height="26.757" viewBox="0 0 26.757 26.757">
  <path id="Icon_metro-phone-in-talk" data-name="Icon metro-phone-in-talk" d="M31.7,25.008a16.956,16.956,0,0,1-5.307-.847,1.491,1.491,0,0,0-1.509.364L21.611,27.8a22.424,22.424,0,0,1-9.8-9.789l3.27-3.278a1.491,1.491,0,0,0,.364-1.509A17,17,0,0,1,14.6,7.913a1.481,1.481,0,0,0-1.487-1.487h-5.2A1.481,1.481,0,0,0,6.427,7.913,25.268,25.268,0,0,0,31.7,33.184,1.481,1.481,0,0,0,33.184,31.7v-5.2A1.481,1.481,0,0,0,31.7,25.008Zm-1.486-5.2h2.973A13.379,13.379,0,0,0,19.805,6.427V9.4A10.407,10.407,0,0,1,30.211,19.805Zm-5.946,0h2.973a7.435,7.435,0,0,0-7.432-7.432v2.973A4.463,4.463,0,0,1,24.265,19.805Z" transform="translate(-6.427 -6.427)" fill="#4ca645"/>
</svg>
