<svg xmlns="http://www.w3.org/2000/svg" width="13.501" height="20.243" viewBox="0 0 13.501 20.243">
  <path id="Icon_ionic-ios-arrow-round-forward" data-name="Icon ionic-ios-arrow-round-forward" d="M12.909.259A.919.919,0,0,0,12.9,1.552l4.275,4.282H.907a.914.914,0,0,0,0,1.828H17.17L12.9,11.944a.925.925,0,0,0,.007,1.294.91.91,0,0,0,1.287-.007L19.983,7.4h0a1.026,1.026,0,0,0,.19-.288.872.872,0,0,0,.07-.352.916.916,0,0,0-.26-.64L14.189.28A.9.9,0,0,0,12.909.259Z" transform="translate(0 20.243) rotate(-90)" fill="#5A2457"/>
</svg>
