<svg xmlns="http://www.w3.org/2000/svg" width="33.045" height="26.839" viewBox="0 0 33.045 26.839">
  <g id="Group_3096" data-name="Group 3096" transform="translate(-757.506 -15.018)">
    <path id="Icon_awesome-twitter" data-name="Icon awesome-twitter" d="M29.649,10.07c.021.294.021.587.021.881,0,8.953-6.815,19.27-19.27,19.27A19.139,19.139,0,0,1,0,27.179a14.011,14.011,0,0,0,1.635.084,13.564,13.564,0,0,0,8.408-2.894,6.785,6.785,0,0,1-6.332-4.7,8.541,8.541,0,0,0,1.279.1,7.163,7.163,0,0,0,1.782-.231A6.774,6.774,0,0,1,1.342,12.9v-.084a6.821,6.821,0,0,0,3.061.86,6.783,6.783,0,0,1-2.1-9.058,19.251,19.251,0,0,0,13.965,7.087,7.645,7.645,0,0,1-.168-1.552A6.779,6.779,0,0,1,27.824,5.519a13.334,13.334,0,0,0,4.3-1.635,6.754,6.754,0,0,1-2.977,3.732,13.577,13.577,0,0,0,3.9-1.048,14.558,14.558,0,0,1-3.4,3.5Z" transform="translate(757.506 11.637)" fill="#4ca645"/>
  </g>
</svg>
